#!OML:ASF E:\Steps\Project 1\Capture day 1\Session 2\Subject.ASF
:FULLY-SPECIFIED
:DEGREES
208
root 0.651392 17.7721 14.9681 -157.229 -26.2833 178.278
lowerback -27.5765 -9.37774 -14.8114
upperback -0.705851 -8.09048 -1.54207
thorax 15.2135 -4.80806 2.84025
lowerneck -4.4575 -6.43727 -2.13558
upperneck 30.9401 -13.5715 2.55714
head 11.0712 -7.3682 -0.395303
rclavicle -7.00716e-014 8.42847e-014
rhumerus -63.9013 -18.1422 -64.092
rradius 35.4236
rwrist -3.79684
rhand -4.69231 -54.4903
rfingers 7.12502
rthumb 21.089 -83.3634
lclavicle -7.00716e-014 8.42847e-014
lhumerus -36.7823 -23.7211 69.1592
lradius 50.5658
lwrist 7.05433
lhand -21.0709 -12.9172
lfingers 7.12502
lthumb 5.30593 16.9963
rfemur -35.9583 14.0021 -15.1102
rtibia 0.396031
rfoot -19.5347 -46.9125
rtoes 38.8752
lfemur -14.7417 -22.4739 -8.29003
ltibia 35.5613
lfoot -32.134 -12.6391
ltoes -1.99496
209
root 0.701122 17.7053 14.8478 -156.655 -26.555 177.748
lowerback -27.6808 -9.46034 -14.7529
upperback -0.776844 -8.21239 -1.60023
thorax 15.179 -4.85723 2.68655
lowerneck -4.77671 -6.4328 -2.17967
upperneck 31.0152 -13.5014 2.47428
head 11.1561 -7.32692 -0.429517
rclavicle 1.88845e-014 -4.77083e-015
rhumerus -64.6445 -18.2553 -63.7253
rradius 35.2961
rwrist -3.58693
rhand -4.47691 -53.3225
rfingers 7.12502
rthumb 21.2959 -82.1724
lclavicle 1.88845e-014 -4.77083e-015
lhumerus -36.7775 -23.779 68.9067
lradius 50.8729
lwrist 7.0679
lhand -21.3083 -12.8826
lfingers 7.12502
lthumb 5.07667 17.0366
rfemur -35.8361 14.6306 -15.7136
rtibia 0.340589
rfoot -18.8351 -47.33
rtoes 39.5216
lfemur -15.0203 -22.0891 -8.22534
ltibia 36.0079
lfoot -32.2411 -13.1915
ltoes -3.19023
210
root 0.750225 17.6351 14.7289 -156.056 -26.8352 177.187
lowerback -27.6448 -9.50767 -14.6436
upperback -0.94903 -8.34634 -1.65278
thorax 14.958 -4.90511 2.53484
lowerneck -4.40087 -6.31198 -1.90644
upperneck 30.2 -12.9662 2.08252
head 10.6962 -7.07354 -0.484598
rclavicle -7.12643e-014 -1.08139e-013
rhumerus -65.5496 -18.1038 -63.5057
rradius 35.3487
rwrist -3.67877
rhand -4.52077 -53.4485
rfingers 7.12502
rthumb 21.2538 -82.3032
lclavicle -7.12643e-014 -1.08139e-013
lhumerus -36.9956 -23.8023 68.7819
lradius 51.2549
lwrist 7.07952
lhand -21.7394 -12.8904
lfingers 7.12502
lthumb 4.66036 17.0383
rfemur -35.7732 15.1311 -16.2163
rtibia 0.495878
rfoot -19.0738 -47.433
rtoes 40.5412
lfemur -15.3351 -22.1658 -8.12796
ltibia 36.2673
lfoot -32.3119 -13.3713
ltoes -4.60966
211
root 0.7983 17.5603 14.6044 -155.48 -26.9518 176.526
lowerback -27.9592 -9.51637 -14.5854
upperback -0.868658 -8.30131 -1.81201
thorax 15.1525 -4.88478 2.30824
lowerneck -4.65078 -6.43246 -2.19979
upperneck 30.4096 -13.173 2.20006
head 10.8615 -7.17343 -0.443669
rclavicle -3.12092e-014 -1.43125e-014
rhumerus -65.9824 -18.2996 -63.3234
rradius 35.0205
rwrist -3.68118
rhand -4.38095 -53.3554
rfingers 7.12502
rthumb 21.3881 -82.1949
lclavicle -3.12092e-014 -1.43125e-014
lhumerus -36.8899 -23.881 68.4544
lradius 51.6029
lwrist 7.08053
lhand -22.129 -13.1057
lfingers 7.12502
lthumb 4.28423 16.831
rfemur -35.6933 15.3469 -16.5466
rtibia 0.767899
rfoot -18.741 -47.2452
rtoes 41.0495
lfemur -15.4472 -22.0782 -8.2925
ltibia 36.5774
lfoot -32.4917 -13.5615
ltoes -5.82494
212
root 0.846927 17.4834 14.4802 -154.758 -26.8886 175.793
lowerback -28.1363 -9.49933 -14.62
upperback -0.975875 -8.25792 -1.93128
thorax 15.0765 -4.86882 2.20168
lowerneck -4.81929 -6.44698 -2.37614
upperneck 30.7828 -13.2872 2.22255
head 11.0575 -7.24621 -0.448384
rclavicle 6.16232e-014 -4.77083e-015
rhumerus -66.4111 -18.4992 -62.8048
rradius 34.3627
rwrist -3.34781
rhand -4.27791 -52.6827
rfingers 7.12502
rthumb 21.4871 -81.5109
lclavicle 6.16232e-014 -4.77083e-015
lhumerus -37.1319 -24.0063 68.2685
lradius 52.0503
lwrist 7.28251
lhand -22.1896 -13.148
lfingers 7.12502
lthumb 4.22571 16.7898
rfemur -35.818 14.7715 -16.5116
rtibia 1.38541
rfoot -17.3908 -46.5117
rtoes 40.1143
lfemur -15.6202 -21.7673 -8.53959
ltibia 36.8658
lfoot -32.6164 -13.7994
ltoes -6.21647
213
root 0.899197 17.4054 14.3583 -154.001 -26.8426 174.94
lowerback -28.1411 -9.57409 -14.7436
upperback -1.12121 -8.3478 -2.01708
thorax 14.9132 -4.91662 2.13875
lowerneck -4.63441 -6.31808 -2.44754
upperneck 30.2458 -12.8601 2.07681
head 10.7911 -7.05533 -0.401426
rclavicle -6.37105e-014 -3.18055e-015
rhumerus -66.8253 -18.5632 -62.2491
rradius 33.7482
rwrist -2.82371
rhand -4.45148 -52.1109
rfingers 7.12502
rthumb 21.3204 -80.9581
lclavicle -6.37105e-014 -3.18055e-015
lhumerus -37.6184 -24.0047 68.1041
lradius 52.663
lwrist 7.7086
lhand -21.9959 -13.039
lfingers 7.12502
lthumb 4.41272 16.895
rfemur -35.8343 13.2275 -15.8683
rtibia 2.37698
rfoot -16.2121 -44.6153
rtoes 37.7039
lfemur -15.7837 -21.6108 -8.87204
ltibia 37.1765
lfoot -32.706 -13.9998
ltoes -6.51725
214
root 0.949862 17.3314 14.2273 -153.524 -27.0037 173.875
lowerback -27.8515 -9.67528 -14.9899
upperback -1.1458 -8.45203 -2.23455
thorax 14.7548 -4.97644 2.01209
lowerneck -4.39182 -6.21592 -2.48661
upperneck 29.9395 -12.6003 1.98951
head 10.6137 -6.94747 -0.368402
rclavicle -2.39536e-014 -4.77083e-015
rhumerus -67.4064 -18.6027 -61.876
rradius 33.3845
rwrist -2.42281
rhand -4.70558 -51.8659
rfingers 7.12502
rthumb 21.0763 -80.7404
lclavicle -2.39536e-014 -4.77083e-015
lhumerus -38.1002 -24.0397 67.8647
lradius 53.268
lwrist 8.07933
lhand -21.812 -12.9985
lfingers 7.12502
lthumb 4.59029 16.9317
rfemur -35.1696 11.1768 -14.6914
rtibia 3.52455
rfoot -14.4333 -41.834
rtoes 32.8995
lfemur -15.5122 -21.793 -9.45663
ltibia 37.4478
lfoot -32.7137 -14.1903
ltoes -7.63698
215
root 0.996814 17.2505 14.114 -152.547 -26.5213 173.133
lowerback -28.2035 -9.50271 -14.7845
upperback -1.40073 -8.28338 -2.41344
thorax 14.5276 -4.8921 1.7735
lowerneck -4.11936 -6.27853 -2.4847
upperneck 29.5902 -12.5606 1.82437
head 10.4145 -6.94185 -0.38946
rclavicle 6.52014e-014 -3.02153e-014
rhumerus -67.9764 -18.5648 -61.5506
rradius 33.0671
rwrist -2.22166
rhand -4.52334 -50.747
rfingers 7.12502
rthumb 21.2513 -79.602
lclavicle 6.52014e-014 -3.02153e-014
lhumerus -38.4811 -24.0683 67.7303
lradius 53.7758
lwrist 8.48846
lhand -21.803 -12.2554
lfingers 7.12502
lthumb 4.59902 17.6746
rfemur -36.0275 8.10845 -13.1745
rtibia 5.616
rfoot -7.97056 -38.7122
rtoes 17.4663
lfemur -15.9179 -21.2085 -9.7962
ltibia 37.7321
lfoot -32.5904 -14.3011
ltoes -8.80746
216
root 1.04351 17.1716 13.9989 -151.783 -26.3463 172.354
lowerback -28.2697 -9.50751 -14.7075
upperback -1.54695 -8.33592 -2.45358
thorax 14.3755 -4.91163 1.67456
lowerneck -4.49585 -6.15211 -2.75191
upperneck 29.8644 -12.3119 1.6503
head 10.5869 -6.85978 -0.41121
rclavicle -4.4329e-014 -5.725e-014
rhumerus -68.1995 -18.5398 -61.1261
rradius 32.5321
rwrist -1.80335
rhand -4.32224 -49.4991
rfingers 7.12502
rthumb 21.4445 -78.3323
lclavicle -4.4329e-014 -5.725e-014
lhumerus -38.6913 -23.7782 67.6664
lradius 53.8723
lwrist 8.55794
lhand -21.9109 -12.1318
lfingers 7.12502
lthumb 4.49481 17.8005
rfemur -36.2008 6.4141 -12.356
rtibia 6.83256
rfoot -4.36001 -36.2759
rtoes -1.30723
lfemur -16.1035 -20.9458 -10.1088
ltibia 37.9062
lfoot -32.3292 -14.4649
ltoes -9.90492
